<svg xmlns="http://www.w3.org/2000/svg" viewBox="0 0 100 100" width="100" height="100">
  <!-- Background gradient -->
  <defs>
    <linearGradient id="bgGradient" x1="0%" y1="0%" x2="100%" y2="100%">
      <stop offset="0%" stop-color="#2563eb" /> <!-- blue-600 -->
      <stop offset="100%" stop-color="#1d4ed8" /> <!-- blue-700 -->
    </linearGradient>
  </defs>
  
  <!-- Rounded square background -->
  <rect x="5" y="5" width="90" height="90" rx="15" fill="url(#bgGradient)" />
  
  <!-- Wrench icon (simplified from Lucide wrench) -->
  <path d="M65,30 C68.866,30 72,33.134 72,37 C72,38.571 71.45,40.007 70.55,41.13 L76,46.58 L71.58,51 L66.13,45.55 C65.007,46.45 63.571,47 62,47 C58.134,47 55,43.866 55,40 C55,38.997 55.195,38.044 55.545,37.17 L60.83,42.46 L65.46,37.83 L60.17,32.54 C61.044,32.19 61.997,32 63,32 C63.686,32 64.35,32.098 65,32.28 Z M35,52 L52,69 L47.58,73.42 C46.14,74.86 43.86,74.86 42.42,73.42 L30.58,61.58 C29.14,60.14 29.14,57.86 30.58,56.42 L35,52 Z" fill="white"/>
</svg> 